<?xml version="1.0" standalone="no"?>
<!DOCTYPE svg PUBLIC "-//W3C//DTD SVG 20010904//EN"
 "http://www.w3.org/TR/2001/REC-SVG-20010904/DTD/svg10.dtd">
<svg version="1.0" xmlns="http://www.w3.org/2000/svg"
 width="512.000000pt" height="512.000000pt" viewBox="0 0 512.000000 512.000000"
 preserveAspectRatio="xMidYMid meet">

<g transform="translate(0.000000,512.000000) scale(0.100000,-0.100000)"
fill="#000000" stroke="none">
<path d="M1906 5099 c-892 -115 -1624 -762 -1840 -1628 -248 -991 231 -2022
1149 -2472 275 -134 518 -199 827 -219 217 -14 455 7 657 58 39 10 74 16 76
12 2 -3 15 -37 30 -75 133 -355 445 -633 822 -732 120 -31 344 -42 475 -23
435 63 821 389 956 806 45 139 57 216 57 374 0 83 -6 175 -14 215 -63 321
-250 603 -516 780 -84 56 -201 114 -275 136 -34 10 -41 16 -37 33 32 146 58
290 67 375 42 424 -50 866 -262 1256 -73 134 -94 155 -152 155 -36 0 -52 -6
-71 -25 -40 -39 -37 -87 11 -166 203 -336 306 -769 275 -1153 -11 -132 -34
-275 -60 -374 l-12 -41 -92 5 c-516 34 -1027 -316 -1192 -816 -45 -138 -58
-216 -59 -377 l-1 -151 -25 -6 c-241 -54 -268 -58 -465 -63 -221 -6 -359 8
-536 52 -735 186 -1296 768 -1454 1508 -146 683 95 1407 626 1875 230 204 535
364 829 436 256 62 581 73 827 27 225 -42 466 -131 646 -239 45 -27 92 -52
104 -56 49 -15 123 45 123 99 0 53 -77 114 -259 205 -187 93 -462 177 -676
205 -127 16 -442 19 -559 4z m2269 -2939 c103 -27 262 -105 345 -168 447 -339
527 -971 178 -1409 -196 -247 -499 -384 -818 -370 -532 22 -950 457 -950 987
0 428 271 805 674 939 133 44 182 50 346 46 108 -2 166 -9 225 -25z"/>
<path d="M3560 1831 c-97 -20 -197 -96 -238 -182 -66 -136 -43 -279 65 -399
l45 -50 -45 -49 c-56 -60 -82 -110 -96 -183 -42 -231 166 -439 397 -397 73 14
123 40 183 96 l49 45 50 -45 c121 -109 265 -131 407 -62 63 31 117 89 152 164
22 47 26 70 26 141 0 105 -21 156 -96 235 l-52 55 52 55 c74 78 95 130 95 240
0 80 -3 97 -29 148 -35 70 -98 130 -173 165 -47 22 -72 26 -137 26 -98 0 -169
-28 -245 -100 l-51 -47 -47 46 c-81 79 -210 120 -312 98z m156 -230 c21 -16
66 -56 99 -90 95 -97 130 -94 245 24 78 79 105 95 164 95 86 0 148 -87 125
-173 -7 -28 -35 -65 -97 -129 -78 -81 -87 -93 -87 -128 0 -35 8 -47 86 -127
97 -99 116 -138 100 -201 -17 -61 -72 -102 -136 -102 -51 0 -68 11 -166 106
-122 119 -136 117 -281 -24 -70 -69 -80 -75 -125 -79 -87 -9 -153 47 -153 130
0 52 18 81 95 157 126 123 127 150 11 269 -95 98 -106 115 -106 166 0 115 131
177 226 106z"/>
<path d="M3604 4500 c-30 -12 -64 -58 -64 -87 0 -32 26 -80 49 -93 39 -20 91
-12 122 19 76 76 -7 202 -107 161z"/>
<path d="M1941 4139 c-462 -49 -919 -261 -1259 -584 -88 -82 -123 -145 -130
-231 -7 -91 17 -160 78 -227 65 -71 130 -101 225 -101 95 0 155 30 270 134
470 428 1146 527 1725 254 124 -59 261 -152 386 -262 118 -104 167 -127 264
-126 223 3 368 241 267 440 -46 90 -269 281 -471 404 -398 240 -886 348 -1355
299z m554 -219 c323 -55 614 -179 867 -371 135 -102 225 -187 233 -221 17 -69
-29 -128 -99 -128 -42 0 -51 5 -129 76 -128 116 -247 197 -402 274 -371 185
-762 235 -1165 148 -147 -31 -262 -73 -415 -148 -154 -77 -274 -158 -402 -274
-78 -71 -87 -76 -129 -76 -34 0 -51 6 -69 24 -54 54 -45 111 28 179 327 306
729 490 1174 537 128 13 369 4 508 -20z"/>
<path d="M1945 3314 c-244 -44 -487 -160 -664 -319 -86 -77 -110 -106 -132
-165 -43 -114 -17 -233 70 -321 71 -70 131 -93 234 -87 86 4 136 27 218 101
291 263 708 263 1011 -2 86 -74 146 -101 229 -101 96 0 154 23 220 89 64 65
89 124 89 212 0 105 -37 173 -150 274 -181 161 -427 279 -669 319 -117 20
-346 20 -456 0z m421 -199 c220 -39 412 -131 579 -279 71 -63 87 -102 65 -157
-28 -66 -106 -77 -172 -24 -170 137 -253 185 -405 232 -81 25 -101 27 -258 27
-156 0 -177 -2 -258 -27 -149 -46 -238 -97 -405 -232 -28 -22 -54 -35 -73 -35
-70 0 -118 56 -105 124 16 85 264 256 472 325 179 60 382 77 560 46z"/>
<path d="M2072 2414 c-73 -19 -131 -55 -187 -115 -129 -138 -141 -354 -27
-503 157 -208 476 -210 631 -3 116 155 106 367 -24 506 -105 112 -249 154
-393 115z m198 -213 c103 -53 130 -200 53 -292 -145 -171 -420 6 -322 208 48
100 166 137 269 84z"/>
</g>
</svg>
